<?xml version="1.0" encoding="UTF-8" standalone="no"?>
<!DOCTYPE svg PUBLIC "-//W3C//DTD SVG 1.1//EN"
 "http://www.w3.org/Graphics/SVG/1.1/DTD/svg11.dtd">
<!-- Generated by graphviz version 16.1.0 (0)
 -->
<!-- Title: AI Data Platform — Поток данных Pages: 1 -->
<svg width="2314pt" height="537pt"
 viewBox="0.00 0.00 2314.00 537.00" xmlns="http://www.w3.org/2000/svg" xmlns:xlink="http://www.w3.org/1999/xlink">
<g id="graph0" class="graph" transform="scale(1 1) rotate(0) translate(4 533.33)">
<title>AI Data Platform — Поток данных</title>
<polygon fill="white" stroke="none" points="-4,4 -4,-533.33 2309.95,-533.33 2309.95,4 -4,4"/>
<text xml:space="preserve" text-anchor="middle" x="1152.98" y="-512.73" font-family="Helvetica,sans-Serif" font-size="14.00">AI Data Platform — Поток данных (Medallion)</text>
<text xml:space="preserve" text-anchor="middle" x="1152.98" y="-495.93" font-family="Helvetica,sans-Serif" font-size="14.00">От внешнего источника до serving&#45;слоя (M0–M13 реализовано)</text>
<!-- source -->
<g id="node1" class="node">
<title>source</title>
<ellipse fill="#e8e8e8" stroke="#7f7f7f" cx="82.65" cy="-435.4" rx="82.65" ry="52.33"/>
<text xml:space="preserve" text-anchor="middle" x="82.65" y="-458.5" font-family="Helvetica,sans-Serif" font-size="11.00">Внешние источники</text>
<text xml:space="preserve" text-anchor="middle" x="82.65" y="-445.3" font-family="Helvetica,sans-Serif" font-size="11.00">(5 адаптеров):</text>
<text xml:space="preserve" text-anchor="middle" x="82.65" y="-432.1" font-family="Helvetica,sans-Serif" font-size="11.00">FakeStore, BestBuy,</text>
<text xml:space="preserve" text-anchor="middle" x="82.65" y="-418.9" font-family="Helvetica,sans-Serif" font-size="11.00">eBay, WebRetailer,</text>
<text xml:space="preserve" text-anchor="middle" x="82.65" y="-405.7" font-family="Helvetica,sans-Serif" font-size="11.00">DifficultRetailer</text>
</g>
<!-- adapter -->
<g id="node2" class="node">
<title>adapter</title>
<polygon fill="#bbdefb" stroke="#1565c0" points="433.35,-465.8 249.82,-465.8 249.82,-405 433.35,-405 433.35,-465.8"/>
<text xml:space="preserve" text-anchor="middle" x="341.58" y="-451.9" font-family="Helvetica,sans-Serif" font-size="11.00">Source Adapter</text>
<text xml:space="preserve" text-anchor="middle" x="341.58" y="-438.7" font-family="Helvetica,sans-Serif" font-size="11.00">— REST/HTTP/HTML/anti&#45;bot</text>
<text xml:space="preserve" text-anchor="middle" x="341.58" y="-425.5" font-family="Helvetica,sans-Serif" font-size="11.00">— emit ProductObservationEvent</text>
<text xml:space="preserve" text-anchor="middle" x="341.58" y="-412.3" font-family="Helvetica,sans-Serif" font-size="11.00">— partition key: source:external_id</text>
</g>
<!-- source&#45;&gt;adapter -->
<g id="edge1" class="edge">
<title>source&#45;&gt;adapter</title>
<path fill="none" stroke="black" d="M165.65,-435.4C188.72,-435.4 214.11,-435.4 238.22,-435.4"/>
<polygon fill="black" stroke="black" points="238.05,-438.9 248.05,-435.4 238.04,-431.9 238.05,-438.9"/>
<text xml:space="preserve" text-anchor="middle" x="207.56" y="-448.9" font-family="Helvetica,sans-Serif" font-size="9.00">collect</text>
<text xml:space="preserve" text-anchor="middle" x="207.56" y="-438.1" font-family="Helvetica,sans-Serif" font-size="9.00">(5 adapters)</text>
</g>
<!-- kafka_raw -->
<g id="node3" class="node">
<title>kafka_raw</title>
<polygon fill="#ffe0b2" stroke="#e65100" points="388.4,-369.4 294.76,-369.4 294.76,-365.4 290.76,-365.4 290.76,-361.4 294.76,-361.4 294.76,-341.4 290.76,-341.4 290.76,-337.4 294.76,-337.4 294.76,-333.4 388.4,-333.4 388.4,-369.4"/>
<polyline fill="none" stroke="#e65100" points="294.76,-365.4 298.76,-365.4 298.76,-361.4 294.76,-361.4"/>
<polyline fill="none" stroke="#e65100" points="294.76,-341.4 298.76,-341.4 298.76,-337.4 294.76,-337.4"/>
<text xml:space="preserve" text-anchor="middle" x="341.58" y="-348.1" font-family="Helvetica,sans-Serif" font-size="11.00">products.raw.v1</text>
</g>
<!-- adapter&#45;&gt;kafka_raw -->
<g id="edge2" class="edge">
<title>adapter&#45;&gt;kafka_raw</title>
<path fill="none" stroke="black" d="M341.58,-404.65C341.58,-396.93 341.58,-388.67 341.58,-381"/>
<polygon fill="black" stroke="black" points="345.08,-381.14 341.58,-371.14 338.08,-381.14 345.08,-381.14"/>
<text xml:space="preserve" text-anchor="middle" x="333.18" y="-384.5" font-family="Helvetica,sans-Serif" font-size="9.00">publish</text>
</g>
<!-- raw_writer -->
<g id="node4" class="node">
<title>raw_writer</title>
<polygon fill="#f8bbd0" stroke="#880e4f" points="675.04,-424.8 545.93,-424.8 545.93,-364 675.04,-364 675.04,-424.8"/>
<text xml:space="preserve" text-anchor="middle" x="610.49" y="-410.9" font-family="Helvetica,sans-Serif" font-size="11.00">Raw Writer</text>
<text xml:space="preserve" text-anchor="middle" x="610.49" y="-397.7" font-family="Helvetica,sans-Serif" font-size="11.00">— consume raw events</text>
<text xml:space="preserve" text-anchor="middle" x="610.49" y="-384.5" font-family="Helvetica,sans-Serif" font-size="11.00">— Parquet serialize</text>
<text xml:space="preserve" text-anchor="middle" x="610.49" y="-371.3" font-family="Helvetica,sans-Serif" font-size="11.00">— MinIO upload</text>
</g>
<!-- kafka_raw&#45;&gt;raw_writer -->
<g id="edge3" class="edge">
<title>kafka_raw&#45;&gt;raw_writer</title>
<path fill="none" stroke="black" d="M388.77,-358.84C428.88,-365.3 487.72,-374.78 534.56,-382.33"/>
<polygon fill="black" stroke="black" points="533.96,-385.78 544.39,-383.91 535.08,-378.87 533.96,-385.78"/>
<text xml:space="preserve" text-anchor="middle" x="488.11" y="-393.99" font-family="Helvetica,sans-Serif" font-size="9.00">consume</text>
<text xml:space="preserve" text-anchor="middle" x="488.11" y="-383.19" font-family="Helvetica,sans-Serif" font-size="9.00">(group: raw&#45;writer)</text>
</g>
<!-- processor -->
<g id="node6" class="node">
<title>processor</title>
<polygon fill="#c8e6c9" stroke="#2e7d32" points="678.09,-346.4 542.88,-346.4 542.88,-272.4 678.09,-272.4 678.09,-346.4"/>
<text xml:space="preserve" text-anchor="middle" x="610.49" y="-332.5" font-family="Helvetica,sans-Serif" font-size="11.00">Processor</text>
<text xml:space="preserve" text-anchor="middle" x="610.49" y="-319.3" font-family="Helvetica,sans-Serif" font-size="11.00">— Pydantic validation</text>
<text xml:space="preserve" text-anchor="middle" x="610.49" y="-306.1" font-family="Helvetica,sans-Serif" font-size="11.00">— schema normalization</text>
<text xml:space="preserve" text-anchor="middle" x="610.49" y="-292.9" font-family="Helvetica,sans-Serif" font-size="11.00">— deduplication</text>
<text xml:space="preserve" text-anchor="middle" x="610.49" y="-279.7" font-family="Helvetica,sans-Serif" font-size="11.00">— Polars transform</text>
</g>
<!-- kafka_raw&#45;&gt;processor -->
<g id="edge5" class="edge">
<title>kafka_raw&#45;&gt;processor</title>
<path fill="none" stroke="black" d="M388.77,-344.13C427.98,-337.96 485.1,-328.97 531.4,-321.69"/>
<polygon fill="black" stroke="black" points="531.79,-325.17 541.13,-320.16 530.7,-318.25 531.79,-325.17"/>
<text xml:space="preserve" text-anchor="middle" x="488.11" y="-347.66" font-family="Helvetica,sans-Serif" font-size="9.00">consume</text>
<text xml:space="preserve" text-anchor="middle" x="488.11" y="-336.86" font-family="Helvetica,sans-Serif" font-size="9.00">(group: processor)</text>
</g>
<!-- bronze -->
<g id="node5" class="node">
<title>bronze</title>
<path fill="#e1bee7" stroke="#6a1b9a" d="M933.38,-428.6C933.38,-432.79 902.12,-436.2 863.64,-436.2 825.15,-436.2 793.89,-432.79 793.89,-428.6 793.89,-428.6 793.89,-360.2 793.89,-360.2 793.89,-356.01 825.15,-352.6 863.64,-352.6 902.12,-352.6 933.38,-356.01 933.38,-360.2 933.38,-360.2 933.38,-428.6 933.38,-428.6"/>
<path fill="none" stroke="#6a1b9a" d="M933.38,-428.6C933.38,-424.41 902.12,-421 863.64,-421 825.15,-421 793.89,-424.41 793.89,-428.6"/>
<text xml:space="preserve" text-anchor="middle" x="863.64" y="-410.9" font-family="Helvetica,sans-Serif" font-size="11.00">Bronze Layer</text>
<text xml:space="preserve" text-anchor="middle" x="863.64" y="-397.7" font-family="Helvetica,sans-Serif" font-size="11.00">Raw Parquet</text>
<text xml:space="preserve" text-anchor="middle" x="863.64" y="-384.5" font-family="Helvetica,sans-Serif" font-size="11.00">(deterministic object keys</text>
<text xml:space="preserve" text-anchor="middle" x="863.64" y="-371.3" font-family="Helvetica,sans-Serif" font-size="11.00">по event_id)</text>
</g>
<!-- raw_writer&#45;&gt;bronze -->
<g id="edge4" class="edge">
<title>raw_writer&#45;&gt;bronze</title>
<path fill="none" stroke="black" d="M675.51,-394.4C707.89,-394.4 747.53,-394.4 781.97,-394.4"/>
<polygon fill="black" stroke="black" points="781.92,-397.9 791.92,-394.4 781.92,-390.9 781.92,-397.9"/>
<text xml:space="preserve" text-anchor="middle" x="735.99" y="-397.1" font-family="Helvetica,sans-Serif" font-size="9.00">write .parquet</text>
</g>
<!-- airflow_compaction -->
<g id="node16" class="node">
<title>airflow_compaction</title>
<polygon fill="#b2ebf2" stroke="#00695c" points="1475.39,-440.2 1328.56,-440.2 1328.56,-392.6 1475.39,-392.6 1475.39,-440.2"/>
<text xml:space="preserve" text-anchor="middle" x="1401.98" y="-426.3" font-family="Helvetica,sans-Serif" font-size="11.00">DAG: parquet_compaction</text>
<text xml:space="preserve" text-anchor="middle" x="1401.98" y="-413.1" font-family="Helvetica,sans-Serif" font-size="11.00">(merge small Parquet files,</text>
<text xml:space="preserve" text-anchor="middle" x="1401.98" y="-399.9" font-family="Helvetica,sans-Serif" font-size="11.00">6h schedule)</text>
</g>
<!-- bronze&#45;&gt;airflow_compaction -->
<g id="edge18" class="edge">
<title>bronze&#45;&gt;airflow_compaction</title>
<path fill="none" stroke="black" d="M933.85,-403.28C967.33,-407.16 1008.14,-411.31 1044.9,-413.4 1137.91,-418.68 1244.79,-418.78 1317,-417.98"/>
<polygon fill="black" stroke="black" points="1316.81,-421.48 1326.77,-417.86 1316.72,-414.48 1316.81,-421.48"/>
<text xml:space="preserve" text-anchor="middle" x="1117.71" y="-431.44" font-family="Helvetica,sans-Serif" font-size="9.00">read</text>
<text xml:space="preserve" text-anchor="middle" x="1117.71" y="-420.64" font-family="Helvetica,sans-Serif" font-size="9.00">small files</text>
</g>
<!-- kafka_valid -->
<g id="node7" class="node">
<title>kafka_valid</title>
<polygon fill="#ffe0b2" stroke="#e65100" points="923.61,-332.4 803.66,-332.4 803.66,-328.4 799.66,-328.4 799.66,-324.4 803.66,-324.4 803.66,-304.4 799.66,-304.4 799.66,-300.4 803.66,-300.4 803.66,-296.4 923.61,-296.4 923.61,-332.4"/>
<polyline fill="none" stroke="#e65100" points="803.66,-328.4 807.66,-328.4 807.66,-324.4 803.66,-324.4"/>
<polyline fill="none" stroke="#e65100" points="803.66,-304.4 807.66,-304.4 807.66,-300.4 803.66,-300.4"/>
<text xml:space="preserve" text-anchor="middle" x="863.64" y="-311.1" font-family="Helvetica,sans-Serif" font-size="11.00">products.validated.v1</text>
</g>
<!-- processor&#45;&gt;kafka_valid -->
<g id="edge6" class="edge">
<title>processor&#45;&gt;kafka_valid</title>
<path fill="none" stroke="black" d="M678.46,-310.73C713.6,-311.43 756.63,-312.29 792.26,-313"/>
<polygon fill="black" stroke="black" points="791.97,-316.49 802.04,-313.19 792.11,-309.5 791.97,-316.49"/>
<text xml:space="preserve" text-anchor="middle" x="735.99" y="-315.34" font-family="Helvetica,sans-Serif" font-size="9.00">validated</text>
</g>
<!-- kafka_dlq -->
<g id="node8" class="node">
<title>kafka_dlq</title>
<polygon fill="#ffe0b2" stroke="#e65100" points="917.19,-278.4 810.08,-278.4 810.08,-274.4 806.08,-274.4 806.08,-270.4 810.08,-270.4 810.08,-250.4 806.08,-250.4 806.08,-246.4 810.08,-246.4 810.08,-242.4 917.19,-242.4 917.19,-278.4"/>
<polyline fill="none" stroke="#e65100" points="810.08,-274.4 814.08,-274.4 814.08,-270.4 810.08,-270.4"/>
<polyline fill="none" stroke="#e65100" points="810.08,-250.4 814.08,-250.4 814.08,-246.4 810.08,-246.4"/>
<text xml:space="preserve" text-anchor="middle" x="863.64" y="-263.7" font-family="Helvetica,sans-Serif" font-size="11.00">products.invalid.v1</text>
<text xml:space="preserve" text-anchor="middle" x="863.64" y="-250.5" font-family="Helvetica,sans-Serif" font-size="11.00">(DLQ)</text>
</g>
<!-- processor&#45;&gt;kafka_dlq -->
<g id="edge7" class="edge">
<title>processor&#45;&gt;kafka_dlq</title>
<path fill="none" stroke="black" d="M678.27,-289.97C684.27,-288.47 690.28,-287.05 696.09,-285.8 729.71,-278.58 767.57,-272.63 798.7,-268.31"/>
<polygon fill="black" stroke="black" points="798.9,-271.82 808.34,-267 797.95,-264.88 798.9,-271.82"/>
<text xml:space="preserve" text-anchor="middle" x="735.99" y="-299.3" font-family="Helvetica,sans-Serif" font-size="9.00">failed</text>
<text xml:space="preserve" text-anchor="middle" x="735.99" y="-288.5" font-family="Helvetica,sans-Serif" font-size="9.00">+ diagnostic context</text>
</g>
<!-- lake_writer -->
<g id="node9" class="node">
<title>lake_writer</title>
<polygon fill="#f48fb1" stroke="#880e4f" points="1177.69,-344.8 1057.74,-344.8 1057.74,-284 1177.69,-284 1177.69,-344.8"/>
<text xml:space="preserve" text-anchor="middle" x="1117.71" y="-330.9" font-family="Helvetica,sans-Serif" font-size="11.00">Lake Writer</text>
<text xml:space="preserve" text-anchor="middle" x="1117.71" y="-317.7" font-family="Helvetica,sans-Serif" font-size="11.00">— consume validated</text>
<text xml:space="preserve" text-anchor="middle" x="1117.71" y="-304.5" font-family="Helvetica,sans-Serif" font-size="11.00">— Parquet serialize</text>
<text xml:space="preserve" text-anchor="middle" x="1117.71" y="-291.3" font-family="Helvetica,sans-Serif" font-size="11.00">— MinIO upload</text>
</g>
<!-- kafka_valid&#45;&gt;lake_writer -->
<g id="edge8" class="edge">
<title>kafka_valid&#45;&gt;lake_writer</title>
<path fill="none" stroke="black" d="M924.06,-314.4C960.62,-314.4 1007.68,-314.4 1046.14,-314.4"/>
<polygon fill="black" stroke="black" points="1045.74,-317.9 1055.74,-314.4 1045.74,-310.9 1045.74,-317.9"/>
<text xml:space="preserve" text-anchor="middle" x="989.14" y="-327.9" font-family="Helvetica,sans-Serif" font-size="9.00">consume</text>
<text xml:space="preserve" text-anchor="middle" x="989.14" y="-317.1" font-family="Helvetica,sans-Serif" font-size="9.00">(group: lake&#45;writer)</text>
</g>
<!-- silver -->
<g id="node10" class="node">
<title>silver</title>
<path fill="#ce93d8" stroke="#6a1b9a" d="M1190.53,-242.18C1190.53,-245.46 1157.89,-248.12 1117.71,-248.12 1077.54,-248.12 1044.9,-245.46 1044.9,-242.18 1044.9,-242.18 1044.9,-188.62 1044.9,-188.62 1044.9,-185.34 1077.54,-182.68 1117.71,-182.68 1157.89,-182.68 1190.53,-185.34 1190.53,-188.62 1190.53,-188.62 1190.53,-242.18 1190.53,-242.18"/>
<path fill="none" stroke="#6a1b9a" d="M1190.53,-242.18C1190.53,-238.89 1157.89,-236.23 1117.71,-236.23 1077.54,-236.23 1044.9,-238.89 1044.9,-242.18"/>
<text xml:space="preserve" text-anchor="middle" x="1117.71" y="-225.3" font-family="Helvetica,sans-Serif" font-size="11.00">Silver Layer</text>
<text xml:space="preserve" text-anchor="middle" x="1117.71" y="-212.1" font-family="Helvetica,sans-Serif" font-size="11.00">Validated Parquet</text>
<text xml:space="preserve" text-anchor="middle" x="1117.71" y="-198.9" font-family="Helvetica,sans-Serif" font-size="11.00">(normalized, deduplicated)</text>
</g>
<!-- lake_writer&#45;&gt;silver -->
<g id="edge9" class="edge">
<title>lake_writer&#45;&gt;silver</title>
<path fill="none" stroke="black" d="M1117.71,-283.59C1117.71,-276.07 1117.71,-267.89 1117.71,-259.88"/>
<polygon fill="black" stroke="black" points="1121.21,-259.88 1117.71,-249.88 1114.21,-259.88 1121.21,-259.88"/>
<text xml:space="preserve" text-anchor="middle" x="1109.31" y="-263.36" font-family="Helvetica,sans-Serif" font-size="9.00">write .parquet</text>
</g>
<!-- wh_loader -->
<g id="node11" class="node">
<title>wh_loader</title>
<polygon fill="#80deea" stroke="#00695c" points="1462.86,-252.4 1341.09,-252.4 1341.09,-178.4 1462.86,-178.4 1462.86,-252.4"/>
<text xml:space="preserve" text-anchor="middle" x="1401.98" y="-238.5" font-family="Helvetica,sans-Serif" font-size="11.00">Warehouse Loader</text>
<text xml:space="preserve" text-anchor="middle" x="1401.98" y="-225.3" font-family="Helvetica,sans-Serif" font-size="11.00">(idempotent UPSERT</text>
<text xml:space="preserve" text-anchor="middle" x="1401.98" y="-212.1" font-family="Helvetica,sans-Serif" font-size="11.00">по event_id,</text>
<text xml:space="preserve" text-anchor="middle" x="1401.98" y="-198.9" font-family="Helvetica,sans-Serif" font-size="11.00">Silver Parquet → PG,</text>
<text xml:space="preserve" text-anchor="middle" x="1401.98" y="-185.7" font-family="Helvetica,sans-Serif" font-size="11.00">periodic 300s loop)</text>
</g>
<!-- silver&#45;&gt;wh_loader -->
<g id="edge10" class="edge">
<title>silver&#45;&gt;wh_loader</title>
<path fill="none" stroke="black" d="M1190.67,-215.4C1233.16,-215.4 1286.77,-215.4 1329.22,-215.4"/>
<polygon fill="black" stroke="black" points="1329.09,-218.9 1339.09,-215.4 1329.09,-211.9 1329.09,-218.9"/>
<text xml:space="preserve" text-anchor="middle" x="1259.54" y="-228.9" font-family="Helvetica,sans-Serif" font-size="9.00">read Parquet</text>
<text xml:space="preserve" text-anchor="middle" x="1259.54" y="-218.1" font-family="Helvetica,sans-Serif" font-size="9.00">(LakeReader, Silver filter)</text>
</g>
<!-- pg -->
<g id="node12" class="node">
<title>pg</title>
<path fill="#4dd0e1" stroke="#00695c" d="M1757.31,-279.3C1757.31,-287.14 1724.39,-293.5 1683.87,-293.5 1643.36,-293.5 1610.44,-287.14 1610.44,-279.3 1610.44,-279.3 1610.44,-151.5 1610.44,-151.5 1610.44,-143.66 1643.36,-137.3 1683.87,-137.3 1724.39,-137.3 1757.31,-143.66 1757.31,-151.5 1757.31,-151.5 1757.31,-279.3 1757.31,-279.3"/>
<path fill="none" stroke="#00695c" d="M1757.31,-279.3C1757.31,-271.46 1724.39,-265.1 1683.87,-265.1 1643.36,-265.1 1610.44,-271.46 1610.44,-279.3"/>
<text xml:space="preserve" text-anchor="middle" x="1683.87" y="-258.3" font-family="Helvetica,sans-Serif" font-size="11.00">PostgreSQL</text>
<text xml:space="preserve" text-anchor="middle" x="1683.87" y="-245.1" font-family="Helvetica,sans-Serif" font-size="11.00">(8 tables)</text>
<text xml:space="preserve" text-anchor="middle" x="1683.87" y="-231.9" font-family="Helvetica,sans-Serif" font-size="11.00">— product_observations</text>
<text xml:space="preserve" text-anchor="middle" x="1683.87" y="-218.7" font-family="Helvetica,sans-Serif" font-size="11.00">— sources, products</text>
<text xml:space="preserve" text-anchor="middle" x="1683.87" y="-205.5" font-family="Helvetica,sans-Serif" font-size="11.00">— pipeline_runs</text>
<text xml:space="preserve" text-anchor="middle" x="1683.87" y="-192.3" font-family="Helvetica,sans-Serif" font-size="11.00">— data_quality_results</text>
<text xml:space="preserve" text-anchor="middle" x="1683.87" y="-179.1" font-family="Helvetica,sans-Serif" font-size="11.00">— ingestion_health_results</text>
<text xml:space="preserve" text-anchor="middle" x="1683.87" y="-165.9" font-family="Helvetica,sans-Serif" font-size="11.00">— daily_metrics</text>
</g>
<!-- wh_loader&#45;&gt;pg -->
<g id="edge11" class="edge">
<title>wh_loader&#45;&gt;pg</title>
<path fill="none" stroke="black" d="M1463.02,-215.4C1502.54,-215.4 1554.84,-215.4 1598.52,-215.4"/>
<polygon fill="black" stroke="black" points="1598.49,-218.9 1608.49,-215.4 1598.49,-211.9 1598.49,-218.9"/>
<text xml:space="preserve" text-anchor="middle" x="1542.92" y="-228.9" font-family="Helvetica,sans-Serif" font-size="9.00">UPSERT</text>
<text xml:space="preserve" text-anchor="middle" x="1542.92" y="-218.1" font-family="Helvetica,sans-Serif" font-size="9.00">(idempotent by event_id)</text>
</g>
<!-- airflow_quality -->
<g id="node13" class="node">
<title>airflow_quality</title>
<polygon fill="#b2ebf2" stroke="#00695c" points="2032.58,-441.8 1888.19,-441.8 1888.19,-381 2032.58,-381 2032.58,-441.8"/>
<text xml:space="preserve" text-anchor="middle" x="1960.39" y="-427.9" font-family="Helvetica,sans-Serif" font-size="11.00">DAG: daily_data_quality</text>
<text xml:space="preserve" text-anchor="middle" x="1960.39" y="-414.7" font-family="Helvetica,sans-Serif" font-size="11.00">(4 checks: required_fields,</text>
<text xml:space="preserve" text-anchor="middle" x="1960.39" y="-401.5" font-family="Helvetica,sans-Serif" font-size="11.00">price_validity, freshness,</text>
<text xml:space="preserve" text-anchor="middle" x="1960.39" y="-388.3" font-family="Helvetica,sans-Serif" font-size="11.00">duplicates)</text>
</g>
<!-- pg&#45;&gt;airflow_quality -->
<g id="edge12" class="edge">
<title>pg&#45;&gt;airflow_quality</title>
<path fill="none" stroke="black" d="M1736.59,-291.33C1748.24,-305.13 1761.33,-318.56 1775.31,-329.4 1805.49,-352.81 1843.41,-371.17 1876.98,-384.52"/>
<polygon fill="black" stroke="black" points="1875.71,-387.78 1886.3,-388.14 1878.24,-381.26 1875.71,-387.78"/>
<text xml:space="preserve" text-anchor="middle" x="1819.08" y="-391.41" font-family="Helvetica,sans-Serif" font-size="9.00">read</text>
<text xml:space="preserve" text-anchor="middle" x="1819.08" y="-380.61" font-family="Helvetica,sans-Serif" font-size="9.00">product_observations</text>
</g>
<!-- airflow_metrics -->
<g id="node14" class="node">
<title>airflow_metrics</title>
<polygon fill="#b2ebf2" stroke="#00695c" points="2039.92,-357.2 1880.85,-357.2 1880.85,-309.6 2039.92,-309.6 2039.92,-357.2"/>
<text xml:space="preserve" text-anchor="middle" x="1960.39" y="-343.3" font-family="Helvetica,sans-Serif" font-size="11.00">DAG: build_daily_metrics</text>
<text xml:space="preserve" text-anchor="middle" x="1960.39" y="-330.1" font-family="Helvetica,sans-Serif" font-size="11.00">(per&#45;source daily aggregates,</text>
<text xml:space="preserve" text-anchor="middle" x="1960.39" y="-316.9" font-family="Helvetica,sans-Serif" font-size="11.00">avg_price, unique_products)</text>
</g>
<!-- pg&#45;&gt;airflow_metrics -->
<g id="edge14" class="edge">
<title>pg&#45;&gt;airflow_metrics</title>
<path fill="none" stroke="black" d="M1757.68,-261.5C1763.56,-264.66 1769.48,-267.67 1775.31,-270.4 1805.27,-284.44 1839.25,-296.95 1869.79,-307.06"/>
<polygon fill="black" stroke="black" points="1868.41,-310.29 1879,-310.06 1870.58,-303.64 1868.41,-310.29"/>
<text xml:space="preserve" text-anchor="middle" x="1819.08" y="-317.09" font-family="Helvetica,sans-Serif" font-size="9.00">read</text>
<text xml:space="preserve" text-anchor="middle" x="1819.08" y="-306.29" font-family="Helvetica,sans-Serif" font-size="9.00">product_observations</text>
</g>
<!-- airflow_health -->
<g id="node15" class="node">
<title>airflow_health</title>
<polygon fill="#b2ebf2" stroke="#00695c" points="2023.42,-291.8 1897.35,-291.8 1897.35,-231 2023.42,-231 2023.42,-291.8"/>
<text xml:space="preserve" text-anchor="middle" x="1960.39" y="-277.9" font-family="Helvetica,sans-Serif" font-size="11.00">DAG: ingestion_health</text>
<text xml:space="preserve" text-anchor="middle" x="1960.39" y="-264.7" font-family="Helvetica,sans-Serif" font-size="11.00">(source freshness,</text>
<text xml:space="preserve" text-anchor="middle" x="1960.39" y="-251.5" font-family="Helvetica,sans-Serif" font-size="11.00">degradation detection,</text>
<text xml:space="preserve" text-anchor="middle" x="1960.39" y="-238.3" font-family="Helvetica,sans-Serif" font-size="11.00">15min schedule)</text>
</g>
<!-- pg&#45;&gt;airflow_health -->
<g id="edge16" class="edge">
<title>pg&#45;&gt;airflow_health</title>
<path fill="none" stroke="black" d="M1757.72,-227.61C1797.27,-234.23 1846.05,-242.41 1885.73,-249.06"/>
<polygon fill="black" stroke="black" points="1884.99,-252.48 1895.44,-250.68 1886.15,-245.58 1884.99,-252.48"/>
<text xml:space="preserve" text-anchor="middle" x="1819.08" y="-258.71" font-family="Helvetica,sans-Serif" font-size="9.00">read</text>
<text xml:space="preserve" text-anchor="middle" x="1819.08" y="-247.91" font-family="Helvetica,sans-Serif" font-size="9.00">sources, observations</text>
</g>
<!-- api -->
<g id="node20" class="node">
<title>api</title>
<polygon fill="#fff59d" stroke="#f57f17" points="2006.46,-213.2 1914.32,-213.2 1914.32,-165.6 2006.46,-165.6 2006.46,-213.2"/>
<text xml:space="preserve" text-anchor="middle" x="1960.39" y="-199.3" font-family="Helvetica,sans-Serif" font-size="11.00">FastAPI</text>
<text xml:space="preserve" text-anchor="middle" x="1960.39" y="-186.1" font-family="Helvetica,sans-Serif" font-size="11.00">(13+ endpoints,</text>
<text xml:space="preserve" text-anchor="middle" x="1960.39" y="-172.9" font-family="Helvetica,sans-Serif" font-size="11.00">/metrics)</text>
</g>
<!-- pg&#45;&gt;api -->
<g id="edge21" class="edge">
<title>pg&#45;&gt;api</title>
<path fill="none" stroke="black" d="M1757.72,-208.5C1803.16,-204.2 1860.79,-198.74 1902.79,-194.76"/>
<polygon fill="black" stroke="black" points="1903.07,-198.25 1912.7,-193.82 1902.41,-191.28 1903.07,-198.25"/>
<text xml:space="preserve" text-anchor="middle" x="1819.08" y="-208.95" font-family="Helvetica,sans-Serif" font-size="9.00">SQL</text>
</g>
<!-- agent -->
<g id="node21" class="node">
<title>agent</title>
<polygon fill="#fff59d" stroke="#f57f17" points="2014.85,-126.2 1905.92,-126.2 1905.92,-78.6 2014.85,-78.6 2014.85,-126.2"/>
<text xml:space="preserve" text-anchor="middle" x="1960.39" y="-112.3" font-family="Helvetica,sans-Serif" font-size="11.00">LangGraph Agent</text>
<text xml:space="preserve" text-anchor="middle" x="1960.39" y="-99.1" font-family="Helvetica,sans-Serif" font-size="11.00">(read&#45;only SQL,</text>
<text xml:space="preserve" text-anchor="middle" x="1960.39" y="-85.9" font-family="Helvetica,sans-Serif" font-size="11.00">4 tools, in&#45;process)</text>
</g>
<!-- pg&#45;&gt;agent -->
<g id="edge22" class="edge">
<title>pg&#45;&gt;agent</title>
<path fill="none" stroke="black" d="M1757.72,-185.41C1800.53,-167.79 1854.16,-145.72 1895.35,-128.76"/>
<polygon fill="black" stroke="black" points="1896.49,-132.08 1904.41,-125.03 1893.83,-125.6 1896.49,-132.08"/>
<text xml:space="preserve" text-anchor="middle" x="1819.08" y="-178.32" font-family="Helvetica,sans-Serif" font-size="9.00">read&#45;only SQL</text>
</g>
<!-- analytics -->
<g id="node22" class="node">
<title>analytics</title>
<polygon fill="#e0e0e0" stroke="#7f7f7f" points="2025.85,-60.8 1894.92,-60.8 1894.92,0 2025.85,0 2025.85,-60.8"/>
<text xml:space="preserve" text-anchor="middle" x="1960.39" y="-46.9" font-family="Helvetica,sans-Serif" font-size="11.00">warehouse/analytics</text>
<text xml:space="preserve" text-anchor="middle" x="1960.39" y="-33.7" font-family="Helvetica,sans-Serif" font-size="11.00">CTE, window functions,</text>
<text xml:space="preserve" text-anchor="middle" x="1960.39" y="-20.5" font-family="Helvetica,sans-Serif" font-size="11.00">rolling averages,</text>
<text xml:space="preserve" text-anchor="middle" x="1960.39" y="-7.3" font-family="Helvetica,sans-Serif" font-size="11.00">price change detection</text>
</g>
<!-- pg&#45;&gt;analytics -->
<g id="edge20" class="edge">
<title>pg&#45;&gt;analytics</title>
<path fill="none" stroke="black" d="M1755.9,-143.15C1762.28,-137.68 1768.8,-132.42 1775.31,-127.6 1818.36,-95.73 1833.39,-94.25 1880.85,-69.4 1882.77,-68.39 1884.72,-67.38 1886.69,-66.36"/>
<polygon fill="black" stroke="black" points="1888.03,-69.61 1895.33,-61.93 1884.83,-63.38 1888.03,-69.61"/>
<text xml:space="preserve" text-anchor="middle" x="1819.08" y="-130.3" font-family="Helvetica,sans-Serif" font-size="9.00">SQL queries</text>
</g>
<!-- gold_quality -->
<g id="node17" class="node">
<title>gold_quality</title>
<path fill="#ba68c8" stroke="#6a1b9a" d="M2295.56,-443.17C2295.56,-446.46 2263.47,-449.12 2223.96,-449.12 2184.46,-449.12 2152.37,-446.46 2152.37,-443.17 2152.37,-443.17 2152.37,-389.62 2152.37,-389.62 2152.37,-386.34 2184.46,-383.67 2223.96,-383.67 2263.47,-383.67 2295.56,-386.34 2295.56,-389.62 2295.56,-389.62 2295.56,-443.17 2295.56,-443.17"/>
<path fill="none" stroke="#6a1b9a" d="M2295.56,-443.17C2295.56,-439.89 2263.47,-437.22 2223.96,-437.22 2184.46,-437.22 2152.37,-439.89 2152.37,-443.17"/>
<text xml:space="preserve" text-anchor="middle" x="2223.96" y="-426.3" font-family="Helvetica,sans-Serif" font-size="11.00">Gold: data_quality_results</text>
<text xml:space="preserve" text-anchor="middle" x="2223.96" y="-413.1" font-family="Helvetica,sans-Serif" font-size="11.00">(check results, pass/fail,</text>
<text xml:space="preserve" text-anchor="middle" x="2223.96" y="-399.9" font-family="Helvetica,sans-Serif" font-size="11.00">records checked)</text>
</g>
<!-- airflow_quality&#45;&gt;gold_quality -->
<g id="edge13" class="edge">
<title>airflow_quality&#45;&gt;gold_quality</title>
<path fill="none" stroke="black" d="M2032.86,-412.77C2066.16,-413.4 2105.96,-414.16 2140.52,-414.82"/>
<polygon fill="black" stroke="black" points="2140.45,-418.32 2150.51,-415.02 2140.58,-411.32 2140.45,-418.32"/>
<text xml:space="preserve" text-anchor="middle" x="2090.95" y="-427.99" font-family="Helvetica,sans-Serif" font-size="9.00">write</text>
<text xml:space="preserve" text-anchor="middle" x="2090.95" y="-417.19" font-family="Helvetica,sans-Serif" font-size="9.00">check results</text>
</g>
<!-- gold_metrics -->
<g id="node18" class="node">
<title>gold_metrics</title>
<path fill="#ba68c8" stroke="#6a1b9a" d="M2287.3,-360.17C2287.3,-363.46 2258.91,-366.12 2223.96,-366.12 2189.01,-366.12 2160.62,-363.46 2160.62,-360.17 2160.62,-360.17 2160.62,-306.62 2160.62,-306.62 2160.62,-303.34 2189.01,-300.67 2223.96,-300.67 2258.91,-300.67 2287.3,-303.34 2287.3,-306.62 2287.3,-306.62 2287.3,-360.17 2287.3,-360.17"/>
<path fill="none" stroke="#6a1b9a" d="M2287.3,-360.17C2287.3,-356.89 2258.91,-354.22 2223.96,-354.22 2189.01,-354.22 2160.62,-356.89 2160.62,-360.17"/>
<text xml:space="preserve" text-anchor="middle" x="2223.96" y="-343.3" font-family="Helvetica,sans-Serif" font-size="11.00">Gold: daily_metrics</text>
<text xml:space="preserve" text-anchor="middle" x="2223.96" y="-330.1" font-family="Helvetica,sans-Serif" font-size="11.00">(analytical aggregates,</text>
<text xml:space="preserve" text-anchor="middle" x="2223.96" y="-316.9" font-family="Helvetica,sans-Serif" font-size="11.00">per date/dimension)</text>
</g>
<!-- airflow_metrics&#45;&gt;gold_metrics -->
<g id="edge15" class="edge">
<title>airflow_metrics&#45;&gt;gold_metrics</title>
<path fill="none" stroke="black" d="M2040.22,-333.4C2074.82,-333.4 2115.21,-333.4 2149.21,-333.4"/>
<polygon fill="black" stroke="black" points="2148.96,-336.9 2158.96,-333.4 2148.96,-329.9 2148.96,-336.9"/>
<text xml:space="preserve" text-anchor="middle" x="2090.95" y="-346.9" font-family="Helvetica,sans-Serif" font-size="9.00">write</text>
<text xml:space="preserve" text-anchor="middle" x="2090.95" y="-336.1" font-family="Helvetica,sans-Serif" font-size="9.00">daily aggregates</text>
</g>
<!-- gold_health -->
<g id="node19" class="node">
<title>gold_health</title>
<path fill="#ba68c8" stroke="#6a1b9a" d="M2305.95,-277.18C2305.95,-280.46 2269.2,-283.12 2223.96,-283.12 2178.72,-283.12 2141.97,-280.46 2141.97,-277.18 2141.97,-277.18 2141.97,-223.62 2141.97,-223.62 2141.97,-220.34 2178.72,-217.68 2223.96,-217.68 2269.2,-217.68 2305.95,-220.34 2305.95,-223.62 2305.95,-223.62 2305.95,-277.18 2305.95,-277.18"/>
<path fill="none" stroke="#6a1b9a" d="M2305.95,-277.18C2305.95,-273.89 2269.2,-271.23 2223.96,-271.23 2178.72,-271.23 2141.97,-273.89 2141.97,-277.18"/>
<text xml:space="preserve" text-anchor="middle" x="2223.96" y="-260.3" font-family="Helvetica,sans-Serif" font-size="11.00">Gold: ingestion_health_results</text>
<text xml:space="preserve" text-anchor="middle" x="2223.96" y="-247.1" font-family="Helvetica,sans-Serif" font-size="11.00">(source state, freshness,</text>
<text xml:space="preserve" text-anchor="middle" x="2223.96" y="-233.9" font-family="Helvetica,sans-Serif" font-size="11.00">degradation reasons)</text>
</g>
<!-- airflow_health&#45;&gt;gold_health -->
<g id="edge17" class="edge">
<title>airflow_health&#45;&gt;gold_health</title>
<path fill="none" stroke="black" d="M2023.71,-258.78C2055.61,-257.44 2095.09,-255.78 2130.47,-254.29"/>
<polygon fill="black" stroke="black" points="2130.44,-257.79 2140.29,-253.88 2130.15,-250.8 2130.44,-257.79"/>
<text xml:space="preserve" text-anchor="middle" x="2090.95" y="-270.71" font-family="Helvetica,sans-Serif" font-size="9.00">write</text>
<text xml:space="preserve" text-anchor="middle" x="2090.95" y="-259.91" font-family="Helvetica,sans-Serif" font-size="9.00">health state</text>
</g>
<!-- airflow_compaction&#45;&gt;bronze -->
<g id="edge19" class="edge">
<title>airflow_compaction&#45;&gt;bronze</title>
<path fill="none" stroke="black" d="M1328.18,-404.04C1287.76,-397.8 1236.51,-390.91 1190.53,-387.8 1125.95,-383.43 1109.61,-386.62 1044.9,-387.8 1012.13,-388.4 976.03,-389.61 944.8,-390.84"/>
<polygon fill="black" stroke="black" points="944.89,-387.33 935.04,-391.23 945.17,-394.32 944.89,-387.33"/>
<text xml:space="preserve" text-anchor="middle" x="1117.71" y="-401.3" font-family="Helvetica,sans-Serif" font-size="9.00">rewrite</text>
<text xml:space="preserve" text-anchor="middle" x="1117.71" y="-390.5" font-family="Helvetica,sans-Serif" font-size="9.00">compacted Parquet</text>
</g>
<!-- api&#45;&gt;agent -->
<g id="edge23" class="edge">
<title>api&#45;&gt;agent</title>
<path fill="none" stroke="black" d="M1960.39,-165.3C1960.39,-156.82 1960.39,-147.12 1960.39,-137.91"/>
<polygon fill="black" stroke="black" points="1963.89,-138.15 1960.39,-128.15 1956.89,-138.15 1963.89,-138.15"/>
<text xml:space="preserve" text-anchor="middle" x="1946.59" y="-148.6" font-family="Helvetica,sans-Serif" font-size="9.00">tool call</text>
<text xml:space="preserve" text-anchor="middle" x="1946.59" y="-137.8" font-family="Helvetica,sans-Serif" font-size="9.00">(in&#45;process)</text>
</g>
</g>
</svg>

